<svg width="123" height="42" viewBox="0 0 123 42" fill="none" xmlns="http://www.w3.org/2000/svg">
<g clip-path="url(#clip0_7_1458)">
<path d="M21.3086 31.5701C19.1931 28.8477 18.723 26.4202 18.6183 23.0312C18.4794 18.6079 18.3191 14.4367 21.1056 10.7378C21.4774 10.2463 21.8877 9.7976 22.2595 9.31039C23.0522 8.32744 23.5288 7.07951 23.5288 5.71833C23.5288 2.56005 20.9688 9.15527e-05 17.8105 9.15527e-05C14.6522 9.15527e-05 12.0923 2.56005 12.0923 5.71833C12.0923 6.28033 12.1756 6.82309 12.3252 7.33807L12.2996 7.3338C12.6521 8.62874 13.4428 9.44715 14.2099 10.366C14.5027 10.7164 14.7911 11.0797 15.0497 11.4921C17.2186 14.9239 17.1118 18.3472 17.037 22.264C16.9772 25.4373 16.8019 27.634 15.1159 30.3991C14.6351 31.1876 14.0518 31.8286 13.5261 32.4932C13.1799 32.8842 12.8851 33.3223 12.6564 33.7988C12.4256 34.2476 12.2483 34.7433 12.1607 35.3203H12.1756C12.1222 35.6301 12.0944 35.9506 12.0944 36.2797C12.0944 39.438 14.6544 41.998 17.8127 41.998C20.9709 41.998 23.5309 39.438 23.5309 36.2797C23.5309 34.8587 23.0116 33.5616 22.1548 32.5616C21.877 32.2261 21.5735 31.9098 21.3107 31.5701H21.3086Z" fill="black"/>
<path d="M11.4754 14.7508C10.2253 16.3599 9.94751 17.7959 9.88554 19.7981C9.80434 22.4115 9.70818 24.8774 11.3557 27.0634C11.5758 27.354 11.8173 27.619 12.0374 27.9075C12.5075 28.4887 12.7874 29.2259 12.7874 30.0315C12.7874 31.8991 11.2745 33.412 9.40688 33.412C7.53926 33.412 6.02637 31.8991 6.02637 30.0315C6.02637 29.6982 6.07551 29.3777 6.16526 29.0742H6.15031C6.35972 28.3114 6.82555 27.8284 7.2807 27.2835C7.45379 27.0763 7.62474 26.8604 7.77646 26.619C9.05857 24.5911 8.99447 22.5675 8.95173 20.2511C8.9154 18.375 8.81283 17.0779 7.81492 15.441C7.53072 14.9752 7.18668 14.597 6.8747 14.2038C6.66956 13.973 6.49648 13.7123 6.35972 13.4324C6.22296 13.1674 6.11825 12.8747 6.06697 12.5328H6.07551C6.04346 12.349 6.02637 12.1588 6.02637 11.9665C6.02637 10.0989 7.53926 8.586 9.40688 8.586C11.2745 8.586 12.7874 10.0989 12.7874 11.9665C12.7874 12.8063 12.4797 13.5734 11.9733 14.1653C11.8087 14.3641 11.6292 14.55 11.4732 14.7508H11.4754Z" fill="black"/>
<path d="M30.5494 13.5116H37.2257C39.1078 13.5116 40.5864 14.0682 41.5467 15.0111C42.3399 15.8252 42.7887 16.9384 42.7887 18.2431V18.2848C42.7887 20.7445 41.3136 22.2231 39.2157 22.8215L43.2583 28.4924H40.155L36.4742 23.2703H33.1795V28.4924H30.5459V13.5116H30.5494ZM37.0308 20.9359C38.913 20.9359 40.1133 19.9513 40.1133 18.431V18.3892C40.1133 16.7854 38.9582 15.9052 37.01 15.9052H33.1795V20.9324H37.0308V20.9359Z" fill="black"/>
<path d="M49.5109 13.5114H52.1445V28.4922H49.5109V13.5114Z" fill="black"/>
<path d="M59.481 13.5114H65.3884C68.8779 13.5114 71.0802 15.5015 71.0802 18.5178V18.5595C71.0802 21.9203 68.3839 23.6737 65.0892 23.6737H62.1147V28.4888H59.481V13.508V13.5114ZM65.1727 21.301C67.1628 21.301 68.4048 20.1877 68.4048 18.6256V18.5839C68.4048 16.8305 67.1419 15.9085 65.1727 15.9085H62.1147V21.301H65.1727Z" fill="black"/>
<path d="M77.1165 13.5114H83.0239C86.5134 13.5114 88.7156 15.5015 88.7156 18.5178V18.5595C88.7156 21.9203 86.0194 23.6737 82.7247 23.6737H79.7501V28.4888H77.1165V13.508V13.5114ZM82.8082 21.301C84.7982 21.301 86.0402 20.1877 86.0402 18.6256V18.5839C86.0402 16.8305 84.7773 15.9085 82.8082 15.9085H79.7501V21.301H82.8082Z" fill="black"/>
<path d="M94.7519 13.5114H97.3856V26.0951H105.259V28.4922H94.7519V13.5114Z" fill="black"/>
<path d="M111.337 13.5114H122.442V15.8667H113.967V19.7598H121.478V22.1151H113.967V26.1369H122.546V28.4922H111.333V13.5114H111.337Z" fill="black"/>
<path d="M3.53864 24.5377C5.49298 24.5377 7.07728 22.9534 7.07728 20.999C7.07728 19.0447 5.49298 17.4604 3.53864 17.4604C1.5843 17.4604 0 19.0447 0 20.999C0 22.9534 1.5843 24.5377 3.53864 24.5377Z" fill="black"/>
</g>
<defs>
<clipPath id="clip0_7_1458">
<rect width="123" height="42" fill="white"/>
</clipPath>
</defs>
</svg>
